<svg width="12" height="10" viewBox="0 0 12 10" fill="none" xmlns="http://www.w3.org/2000/svg">
<path d="M0.666687 4.81714C0.666687 4.56401 0.85479 4.35481 1.09884 4.3217L1.16669 4.31714L11.1667 4.31714C11.4428 4.31714 11.6667 4.541 11.6667 4.81714C11.6667 5.07027 11.4786 5.27947 11.2345 5.31257L11.1667 5.31714L1.16669 5.31714C0.890545 5.31714 0.666687 5.09328 0.666687 4.81714Z" fill="#7F7F91"/>
<path d="M6.78069 1.1552C6.58501 0.960362 6.58433 0.643781 6.77917 0.448099C6.9563 0.270206 7.23404 0.25347 7.43009 0.398285L7.48628 0.446576L11.5196 4.46258C11.698 4.64023 11.7143 4.91898 11.5683 5.11502L11.5196 5.17118L7.4863 9.18784C7.29064 9.3827 6.97406 9.38204 6.7792 9.18638C6.60206 9.0085 6.58649 8.73069 6.73214 8.53525L6.78066 8.47927L10.458 4.81669L6.78069 1.1552Z" fill="#7F7F91"/>
</svg>
