<svg width="17" height="19" viewBox="0 0 17 19" fill="none" xmlns="http://www.w3.org/2000/svg">
<path fill-rule="evenodd" clip-rule="evenodd" d="M16.2221 8.2536H1.36877C1.02377 8.2536 0.743774 7.9736 0.743774 7.6286C0.743774 7.2836 1.02377 7.0036 1.36877 7.0036H16.2221C16.5671 7.0036 16.8471 7.2836 16.8471 7.6286C16.8471 7.9736 16.5671 8.2536 16.2221 8.2536Z" fill="#5D6373"/>
<path fill-rule="evenodd" clip-rule="evenodd" d="M12.501 11.508C12.156 11.508 11.8727 11.228 11.8727 10.883C11.8727 10.538 12.1485 10.258 12.4935 10.258H12.501C12.846 10.258 13.126 10.538 13.126 10.883C13.126 11.228 12.846 11.508 12.501 11.508Z" fill="#5D6373"/>
<path fill-rule="evenodd" clip-rule="evenodd" d="M8.80308 11.508C8.45808 11.508 8.17474 11.228 8.17474 10.883C8.17474 10.538 8.45058 10.258 8.79558 10.258H8.80308C9.14808 10.258 9.42808 10.538 9.42808 10.883C9.42808 11.228 9.14808 11.508 8.80308 11.508Z" fill="#5D6373"/>
<path fill-rule="evenodd" clip-rule="evenodd" d="M5.09743 11.508C4.75243 11.508 4.46826 11.228 4.46826 10.883C4.46826 10.538 4.74493 10.258 5.08993 10.258H5.09743C5.44243 10.258 5.72243 10.538 5.72243 10.883C5.72243 11.228 5.44243 11.508 5.09743 11.508Z" fill="#5D6373"/>
<path fill-rule="evenodd" clip-rule="evenodd" d="M12.501 14.7469C12.156 14.7469 11.8727 14.4669 11.8727 14.1219C11.8727 13.7769 12.1485 13.4969 12.4935 13.4969H12.501C12.846 13.4969 13.126 13.7769 13.126 14.1219C13.126 14.4669 12.846 14.7469 12.501 14.7469Z" fill="#5D6373"/>
<path fill-rule="evenodd" clip-rule="evenodd" d="M8.80308 14.7469C8.45808 14.7469 8.17474 14.4669 8.17474 14.1219C8.17474 13.7769 8.45058 13.4969 8.79558 13.4969H8.80308C9.14808 13.4969 9.42808 13.7769 9.42808 14.1219C9.42808 14.4669 9.14808 14.7469 8.80308 14.7469Z" fill="#5D6373"/>
<path fill-rule="evenodd" clip-rule="evenodd" d="M5.09743 14.7469C4.75243 14.7469 4.46826 14.4669 4.46826 14.1219C4.46826 13.7769 4.74493 13.4969 5.08993 13.4969H5.09743C5.44243 13.4969 5.72243 13.7769 5.72243 14.1219C5.72243 14.4669 5.44243 14.7469 5.09743 14.7469Z" fill="#5D6373"/>
<path fill-rule="evenodd" clip-rule="evenodd" d="M12.1613 4.82584C11.8163 4.82584 11.5363 4.54584 11.5363 4.20084V1.45834C11.5363 1.11334 11.8163 0.833344 12.1613 0.833344C12.5063 0.833344 12.7863 1.11334 12.7863 1.45834V4.20084C12.7863 4.54584 12.5063 4.82584 12.1613 4.82584Z" fill="#5D6373"/>
<path fill-rule="evenodd" clip-rule="evenodd" d="M5.42944 4.82584C5.08444 4.82584 4.80444 4.54584 4.80444 4.20084V1.45834C4.80444 1.11334 5.08444 0.833344 5.42944 0.833344C5.77444 0.833344 6.05444 1.11334 6.05444 1.45834V4.20084C6.05444 4.54584 5.77444 4.82584 5.42944 4.82584Z" fill="#5D6373"/>
<mask id="mask0_106_296" style="mask-type:alpha" maskUnits="userSpaceOnUse" x="0" y="2" width="17" height="17">
<path fill-rule="evenodd" clip-rule="evenodd" d="M0.666687 2.14926H16.9167V18.75H0.666687V2.14926Z" fill="white"/>
</mask>
<g mask="url(#mask0_106_296)">
<path fill-rule="evenodd" clip-rule="evenodd" d="M5.26752 3.39926C3.10669 3.39926 1.91669 4.55176 1.91669 6.64426V14.1851C1.91669 16.3234 3.10669 17.5001 5.26752 17.5001H12.3159C14.4767 17.5001 15.6667 16.3451 15.6667 14.2484V6.64426C15.67 5.61509 15.3934 4.81509 14.8442 4.26509C14.2792 3.69843 13.4084 3.39926 12.3234 3.39926H5.26752ZM12.3159 18.7501H5.26752C2.43002 18.7501 0.666687 17.0009 0.666687 14.1851V6.64426C0.666687 3.87093 2.43002 2.14926 5.26752 2.14926H12.3234C13.7475 2.14926 14.925 2.57593 15.7292 3.38176C16.51 4.16593 16.9209 5.29343 16.9167 6.64593V14.2484C16.9167 17.0251 15.1534 18.7501 12.3159 18.7501Z" fill="#5D6373"/>
</g>
</svg>
