<svg width="14" height="14" viewBox="0 0 14 14" fill="none" xmlns="http://www.w3.org/2000/svg">
<mask id="mask0_106_9" style="mask-type:alpha" maskUnits="userSpaceOnUse" x="0" y="0" width="14" height="14">
<path fill-rule="evenodd" clip-rule="evenodd" d="M0.583313 0.583496H13.1209V13.1215H0.583313V0.583496Z" fill="white"/>
</mask>
<g mask="url(#mask0_106_9)">
<path fill-rule="evenodd" clip-rule="evenodd" d="M3.56323 11.4772C3.90157 11.4772 4.22065 11.6056 4.5584 11.7415C6.62748 12.6982 9.07457 12.263 10.6688 10.6693C12.7723 8.56466 12.7723 5.14108 10.6688 3.03758C9.65032 2.01908 8.29582 1.4585 6.85382 1.4585C5.41123 1.4585 4.05615 2.01966 3.03823 3.03816C1.4434 4.63183 1.0094 7.07891 1.95732 9.12816C2.09382 9.46591 2.22565 9.79491 2.22565 10.1367C2.22565 10.478 2.1084 10.8216 2.00515 11.1249C1.91998 11.3746 1.79107 11.7514 1.8739 11.8342C1.95498 11.9182 2.33415 11.7858 2.5844 11.7001C2.88482 11.5974 3.22548 11.4796 3.56323 11.4772ZM6.83923 13.1217C5.9479 13.1217 5.05073 12.9332 4.21132 12.5447C3.96398 12.4456 3.7324 12.3522 3.56615 12.3522C3.37482 12.3534 3.11757 12.4421 2.86907 12.5278C2.35923 12.7028 1.72457 12.921 1.25498 12.4532C0.787151 11.9847 1.00298 11.3518 1.17682 10.8426C1.26257 10.5917 1.35065 10.3327 1.35065 10.1367C1.35065 9.97575 1.27307 9.77041 1.15407 9.47466C0.0614846 7.11508 0.566651 4.27133 2.4199 2.41925C3.6029 1.23566 5.17732 0.583496 6.85323 0.583496C8.52915 0.583496 10.1042 1.23508 11.2872 2.41866C13.7325 4.864 13.7325 8.84233 11.2872 11.2877C10.0884 12.487 8.47432 13.1217 6.83923 13.1217Z" fill="#7F7F91"/>
</g>
<path fill-rule="evenodd" clip-rule="evenodd" d="M9.15616 7.67842C8.83416 7.67842 8.5705 7.41767 8.5705 7.09508C8.5705 6.7725 8.82891 6.51175 9.15091 6.51175H9.15616C9.47816 6.51175 9.7395 6.7725 9.7395 7.09508C9.7395 7.41767 9.47816 7.67842 9.15616 7.67842Z" fill="#7F7F91"/>
<path fill-rule="evenodd" clip-rule="evenodd" d="M6.81766 7.67842C6.49566 7.67842 6.23199 7.41767 6.23199 7.09508C6.23199 6.7725 6.48983 6.51175 6.81241 6.51175H6.81766C7.13966 6.51175 7.40099 6.7725 7.40099 7.09508C7.40099 7.41767 7.13966 7.67842 6.81766 7.67842Z" fill="#7F7F91"/>
<path fill-rule="evenodd" clip-rule="evenodd" d="M4.47898 7.67842C4.15698 7.67842 3.89331 7.41767 3.89331 7.09508C3.89331 6.7725 4.15173 6.51175 4.47373 6.51175H4.47898C4.80098 6.51175 5.06231 6.7725 5.06231 7.09508C5.06231 7.41767 4.80098 7.67842 4.47898 7.67842Z" fill="#7F7F91"/>
</svg>
