<svg width="17" height="19" viewBox="0 0 17 19" fill="none" xmlns="http://www.w3.org/2000/svg">
<mask id="mask0_66_33" style="mask-type:alpha" maskUnits="userSpaceOnUse" x="0" y="0" width="17" height="15">
<path fill-rule="evenodd" clip-rule="evenodd" d="M0.812576 0.104187H16.612V14.9223H0.812576V0.104187Z" fill="white"/>
</mask>
<g mask="url(#mask0_66_33)">
<path fill-rule="evenodd" clip-rule="evenodd" d="M8.71107 1.38544C5.72575 1.38544 3.645 3.72415 3.645 5.82283C3.645 7.59865 3.15215 8.4195 2.71653 9.14383C2.36717 9.72552 2.09128 10.1851 2.09128 11.1836C2.23392 12.7945 3.29736 13.641 8.71107 13.641C14.0949 13.641 15.1916 12.757 15.3334 11.1281C15.3309 10.1851 15.055 9.72552 14.7056 9.14383C14.27 8.4195 13.7771 7.59865 13.7771 5.82283C13.7771 3.72415 11.6964 1.38544 8.71107 1.38544M8.71107 14.9223C4.71698 14.9223 1.10728 14.6404 0.812588 11.2382C0.810025 9.83058 1.23967 9.11479 1.61892 8.48442C2.00244 7.8455 2.36375 7.24331 2.36375 5.82283C2.36375 3.06131 4.9143 0.104187 8.71107 0.104187C12.5078 0.104187 15.0584 3.06131 15.0584 5.82283C15.0584 7.24331 15.4197 7.8455 15.8032 8.48442C16.1825 9.11479 16.6121 9.83058 16.6121 11.1836C16.314 14.6404 12.7052 14.9223 8.71107 14.9223" fill="#7F7F91"/>
</g>
<path fill-rule="evenodd" clip-rule="evenodd" d="M8.66939 18.4688H8.66768C7.71016 18.4679 6.80389 18.046 6.11628 17.2798C5.87968 17.0175 5.90103 16.6118 6.16412 16.3761C6.4272 16.1386 6.83207 16.16 7.06868 16.4239C7.51114 16.9167 8.07916 17.1875 8.66853 17.1875H8.66939C9.26132 17.1875 9.83191 16.9167 10.2752 16.423C10.5127 16.1608 10.9176 16.1395 11.1798 16.3761C11.4429 16.6127 11.4642 17.0184 11.2276 17.2806C10.5374 18.0468 9.62947 18.4688 8.66939 18.4688" fill="#7F7F91"/>
</svg>
