<svg width="21" height="24" viewBox="0 0 21 24" fill="none" xmlns="http://www.w3.org/2000/svg">
<path d="M20.6667 12.0142C20.6667 12.7513 20.4347 13.4913 19.9706 14.0839C19.8836 14.2001 19.4776 14.6792 19.1586 14.9911L18.9846 15.1612C16.5485 17.744 10.4873 21.6282 7.41323 22.8728C7.41323 22.9012 5.58617 23.6412 4.71615 23.6667H4.60014C3.2661 23.6667 2.01906 22.9324 1.38104 21.7416C1.03303 21.0867 0.714015 19.1871 0.685014 19.1616C0.424006 17.4577 0.25 14.8493 0.25 11.9858C0.25 8.98341 0.424006 6.25882 0.743016 4.58608C0.743016 4.55773 1.06203 3.02674 1.26503 2.51641C1.58404 1.78211 2.16406 1.15554 2.88909 0.758617C3.46911 0.477936 4.07812 0.333344 4.71615 0.333344C5.38317 0.36453 6.63021 0.786968 7.12322 0.985429C10.3713 2.2329 16.5775 6.31552 18.9556 8.81046C19.3616 9.20738 19.7966 9.69219 19.9126 9.80276C20.4057 10.4265 20.6667 11.192 20.6667 12.0142Z" fill="#0095FF"/>
</svg>
