<svg width="16" height="17" viewBox="0 0 16 17" fill="none" xmlns="http://www.w3.org/2000/svg">
<mask id="mask0_66_126" style="mask-type:alpha" maskUnits="userSpaceOnUse" x="0" y="0" width="16" height="16">
<path fill-rule="evenodd" clip-rule="evenodd" d="M0.5 0.5H15.1076V15.1077H0.5V0.5Z" fill="white"/>
</mask>
<g mask="url(#mask0_66_126)">
<path fill-rule="evenodd" clip-rule="evenodd" d="M7.8041 1.625C4.39685 1.625 1.62485 4.39625 1.62485 7.8035C1.62485 11.2108 4.39685 13.9827 7.8041 13.9827C11.2106 13.9827 13.9826 11.2108 13.9826 7.8035C13.9826 4.39625 11.2106 1.625 7.8041 1.625ZM7.8041 15.1077C3.7766 15.1077 0.499847 11.831 0.499847 7.8035C0.499847 3.776 3.7766 0.5 7.8041 0.5C11.8316 0.5 15.1076 3.776 15.1076 7.8035C15.1076 11.831 11.8316 15.1077 7.8041 15.1077Z" fill="#7F7F91"/>
</g>
<mask id="mask1_66_126" style="mask-type:alpha" maskUnits="userSpaceOnUse" x="11" y="12" width="5" height="5">
<path fill-rule="evenodd" clip-rule="evenodd" d="M11.93 12.2802H15.698V16.0413H11.93V12.2802Z" fill="white"/>
</mask>
<g mask="url(#mask1_66_126)">
<path fill-rule="evenodd" clip-rule="evenodd" d="M15.1356 16.0413C14.9924 16.0413 14.8484 15.9865 14.7381 15.877L12.0952 13.2415C11.8754 13.0218 11.8747 12.6655 12.0944 12.4458C12.3134 12.2245 12.6697 12.226 12.8902 12.4443L15.5331 15.0805C15.7529 15.3003 15.7536 15.6558 15.5339 15.8755C15.4244 15.9865 15.2796 16.0413 15.1356 16.0413Z" fill="#7F7F91"/>
</g>
</svg>
