<svg width="17" height="17" viewBox="0 0 17 17" fill="none" xmlns="http://www.w3.org/2000/svg">
<mask id="mask0_106_276" style="mask-type:alpha" maskUnits="userSpaceOnUse" x="0" y="0" width="17" height="17">
<path fill-rule="evenodd" clip-rule="evenodd" d="M0.666672 0.500336H16.9158V16.7495H0.666672V0.500336Z" fill="white"/>
</mask>
<g mask="url(#mask0_106_276)">
<path fill-rule="evenodd" clip-rule="evenodd" d="M8.0041 10.3482L11.0516 15.2924C11.1849 15.509 11.3933 15.5065 11.4774 15.4949C11.5616 15.4832 11.7641 15.4315 11.8374 15.1857L15.6483 2.31485C15.7149 2.08735 15.5924 1.93235 15.5374 1.87735C15.4841 1.82235 15.3316 1.70485 15.1108 1.76735L2.23076 5.53902C1.9866 5.61068 1.93326 5.81568 1.9216 5.89985C1.90993 5.98568 1.9066 6.19818 2.12243 6.33402L7.12326 9.46152L11.5416 4.99652C11.7841 4.75152 12.1799 4.74902 12.4258 4.99152C12.6716 5.23402 12.6733 5.63068 12.4308 5.87568L8.0041 10.3482ZM11.4124 16.7498C10.8324 16.7498 10.3008 16.4548 9.98743 15.9482L6.7566 10.7057L1.45993 7.39318C0.889095 7.03568 0.590762 6.39902 0.683262 5.72985C0.774929 5.06068 1.2341 4.52902 1.8791 4.33985L14.7591 0.568184C15.3516 0.39485 15.9866 0.559017 16.4233 0.994017C16.8599 1.43318 17.0224 2.07485 16.8458 2.66985L13.0349 15.5399C12.8441 16.1874 12.3108 16.6448 11.6433 16.734C11.5649 16.744 11.4891 16.7498 11.4124 16.7498Z" fill="white"/>
</g>
</svg>
