<svg width="16" height="13" viewBox="0 0 16 13" fill="none" xmlns="http://www.w3.org/2000/svg">
<path fill-rule="evenodd" clip-rule="evenodd" d="M7.99969 4.23097C7.00219 4.23097 6.19144 5.04247 6.19144 6.03997C6.19144 7.03672 7.00219 7.84747 7.99969 7.84747C8.99719 7.84747 9.80869 7.03672 9.80869 6.03997C9.80869 5.04247 8.99719 4.23097 7.99969 4.23097ZM7.99969 8.97247C6.38194 8.97247 5.06644 7.65697 5.06644 6.03997C5.06644 4.42222 6.38194 3.10597 7.99969 3.10597C9.61744 3.10597 10.9337 4.42222 10.9337 6.03997C10.9337 7.65697 9.61744 8.97247 7.99969 8.97247Z" fill="#7F7F91"/>
<mask id="mask0_106_239" style="mask-type:alpha" maskUnits="userSpaceOnUse" x="0" y="0" width="16" height="13">
<path fill-rule="evenodd" clip-rule="evenodd" d="M0.500107 0.000152588H15.5V12.0789H0.500107V0.000152588Z" fill="white"/>
</mask>
<g mask="url(#mask0_106_239)">
<path fill-rule="evenodd" clip-rule="evenodd" d="M1.67742 6.03938C3.07242 9.12113 5.42217 10.9534 7.99992 10.9541C10.5777 10.9534 12.9274 9.12113 14.3224 6.03938C12.9274 2.95838 10.5777 1.12613 7.99992 1.12538C5.42292 1.12613 3.07242 2.95838 1.67742 6.03938ZM8.00142 12.0791H7.99842H7.99767C4.89567 12.0769 2.11017 9.90263 0.545669 6.26138C0.484919 6.11963 0.484919 5.95913 0.545669 5.81738C2.11017 2.17688 4.89642 0.00262939 7.99767 0.000379395C7.99917 -0.000370605 7.99917 -0.000370605 7.99992 0.000379395C8.00142 -0.000370605 8.00142 -0.000370605 8.00217 0.000379395C11.1042 0.00262939 13.8897 2.17688 15.4542 5.81738C15.5157 5.95913 15.5157 6.11963 15.4542 6.26138C13.8904 9.90263 11.1042 12.0769 8.00217 12.0791H8.00142Z" fill="#7F7F91"/>
</g>
</svg>
