<svg width="16" height="16" viewBox="0 0 16 16" fill="none" xmlns="http://www.w3.org/2000/svg">
<path fill-rule="evenodd" clip-rule="evenodd" d="M8 1.625C4.48475 1.625 1.625 4.48475 1.625 8C1.625 11.5153 4.48475 14.375 8 14.375C11.5153 14.375 14.375 11.5153 14.375 8C14.375 4.48475 11.5153 1.625 8 1.625ZM8 15.5C3.8645 15.5 0.5 12.1355 0.5 8C0.5 3.8645 3.8645 0.5 8 0.5C12.1355 0.5 15.5 3.8645 15.5 8C15.5 12.1355 12.1355 15.5 8 15.5Z" fill="#7F7F91"/>
<path fill-rule="evenodd" clip-rule="evenodd" d="M10.5734 10.7693C10.4752 10.7693 10.3762 10.7438 10.2854 10.6906L7.45791 9.00381C7.28841 8.90181 7.18341 8.71806 7.18341 8.52006V4.88406C7.18341 4.57356 7.43541 4.32156 7.74591 4.32156C8.05716 4.32156 8.30841 4.57356 8.30841 4.88406V8.20056L10.8622 9.72306C11.1284 9.88281 11.2162 10.2278 11.0572 10.4948C10.9514 10.6711 10.7647 10.7693 10.5734 10.7693Z" fill="#7F7F91"/>
</svg>
