<svg width="10" height="10" viewBox="0 0 10 10" fill="none" xmlns="http://www.w3.org/2000/svg">
<path fill-rule="evenodd" clip-rule="evenodd" d="M5 0.75C2.6565 0.75 0.75 2.6565 0.75 5C0.75 7.3435 2.6565 9.25 5 9.25C7.3435 9.25 9.25 7.3435 9.25 5C9.25 2.6565 7.3435 0.75 5 0.75ZM5 10C2.243 10 0 7.757 0 5C0 2.243 2.243 0 5 0C7.757 0 10 2.243 10 5C10 7.757 7.757 10 5 10Z" fill="#5D6373"/>
<path fill-rule="evenodd" clip-rule="evenodd" d="M6.71563 6.84623C6.65013 6.84623 6.58413 6.82923 6.52363 6.79373L4.63863 5.66923C4.52563 5.60123 4.45563 5.47873 4.45563 5.34673V2.92273C4.45563 2.71573 4.62363 2.54773 4.83063 2.54773C5.03813 2.54773 5.20563 2.71573 5.20563 2.92273V5.13373L6.90813 6.14873C7.08563 6.25523 7.14413 6.48523 7.03813 6.66323C6.96763 6.78073 6.84313 6.84623 6.71563 6.84623Z" fill="#5D6373"/>
</svg>
